<svg width="16" height="16" viewBox="0 0 16 16" fill="none" xmlns="http://www.w3.org/2000/svg">
<path fill-rule="evenodd" clip-rule="evenodd" d="M8.00002 0.666687C3.94993 0.666687 0.666687 3.94993 0.666687 8.00002C0.666687 12.0501 3.94993 15.3334 8.00002 15.3334C12.0501 15.3334 15.3334 12.0501 15.3334 8.00002C15.3334 3.94993 12.0501 0.666687 8.00002 0.666687ZM8.00002 2.00002C11.3137 2.00002 14 4.68631 14 8.00002C14 11.3137 11.3137 14 8.00002 14C4.68631 14 2.00002 11.3137 2.00002 8.00002C2.00002 4.68631 4.68631 2.00002 8.00002 2.00002ZM8.6622 3.92227C8.62369 3.59071 8.34191 3.33335 8.00002 3.33335C7.63183 3.33335 7.33335 3.63183 7.33335 4.00002V8.00002L7.33856 8.08326C7.36609 8.30238 7.50112 8.49592 7.70188 8.59631L10.3685 9.92964L10.4401 9.9604C10.7539 10.0742 11.1101 9.93729 11.263 9.6315L11.2937 9.55995C11.4076 9.24617 11.2706 8.88997 10.9648 8.73707L8.66669 7.58802V4.00002L8.6622 3.92227Z" fill="#5d636499"/>
</svg>
