<svg width="22" height="22" viewBox="0 0 22 22" fill="none" xmlns="http://www.w3.org/2000/svg">
<path d="M19.2635 0.754649C19.2635 0.754649 18.1041 1.88602 17.3009 2.68052C13.1998 -0.315476 7.42039 0.024024 3.71651 3.7279C1.55526 5.88915 0.546389 8.75653 0.668014 11.588H4.16801C4.04464 9.65252 4.70876 7.6794 6.18751 6.19977C8.51764 3.86965 12.0806 3.53715 14.773 5.18302C13.8613 6.08602 12.8086 7.14127 12.8086 7.14127C12.0728 8.02415 12.8996 8.53427 13.3196 8.52115L18.2406 8.52027C18.5005 8.52027 18.7123 8.52115 18.7123 8.52115C18.7123 8.52115 18.9266 8.52115 19.1874 8.52115H20.1429C20.4036 8.52115 20.6154 8.30852 20.6154 8.04777V1.28315C20.6451 0.664524 19.9661 0.0642736 19.2635 0.754649Z" fill="#161C1D"/>
<path d="M2.73558 21.2454C2.73558 21.2454 3.89583 20.114 4.6982 19.3195C8.8002 22.3155 14.5787 21.976 18.2835 18.2722C20.4447 16.11 21.4527 13.2435 21.332 10.412H17.8311C17.9553 12.3467 17.2912 14.3207 15.8116 15.8012C13.4815 18.1304 9.91845 18.4638 7.22608 16.817C8.13783 15.914 9.19045 14.8588 9.19045 14.8588C9.92633 13.975 9.09945 13.4658 8.67945 13.4789L3.75845 13.4807C3.49858 13.4807 3.28595 13.4789 3.28595 13.4789C3.28595 13.4789 3.07158 13.4789 2.81083 13.4789H1.85708C1.59633 13.4789 1.38458 13.6907 1.3837 13.9523V20.7178C1.35483 21.3355 2.03383 21.9358 2.73558 21.2454Z" fill="#161C1D"/>
</svg>
